<svg width="59" height="48" fill="none" xmlns="http://www.w3.org/2000/svg"><path d="M59 5.694c-2.17.962-4.5 1.612-6.95 1.906A12.142 12.142 0 0057.37.896a24.154 24.154 0 01-7.685 2.938 12.106 12.106 0 00-14.554-2.4 12.127 12.127 0 00-6.073 13.451A34.354 34.354 0 014.108 2.228a12.115 12.115 0 00-1.637 6.09 12.125 12.125 0 005.384 10.085 12.069 12.069 0 01-5.483-1.516v.156c0 2.797.967 5.509 2.737 7.674a12.108 12.108 0 006.974 4.205 12.184 12.184 0 01-5.467.208 12.12 12.12 0 004.306 6.02 12.105 12.105 0 007.002 2.39 24.278 24.278 0 01-15.035 5.187c-.965 0-1.93-.056-2.889-.169A34.216 34.216 0 0018.553 48c22.268 0 34.442-18.458 34.442-34.466 0-.52-.013-1.045-.036-1.566a24.615 24.615 0 006.036-6.267L59 5.694z" fill="#fff"/></svg>