<svg width="48" height="48" fill="none" xmlns="http://www.w3.org/2000/svg"><path fill-rule="evenodd" clip-rule="evenodd" d="M48 24c0 13.254-10.746 24-24 24S0 37.254 0 24 10.746 0 24 0s24 10.746 24 24zm-8.624-1.884A3.5 3.5 0 0140.008 24a3.502 3.502 0 01-1.944 3.192c.028.352.028.704 0 1.056 0 5.376-6.264 9.744-13.992 9.744-7.728 0-13.992-4.368-13.992-9.744a6.894 6.894 0 010-1.056 3.5 3.5 0 113.864-5.736 17.137 17.137 0 019.36-2.952l1.776-8.328a.743.743 0 01.888-.576l5.88 1.176a2.4 2.4 0 11-.312 1.464L26.4 11.16l-1.56 7.488c3.3.07 6.51 1.096 9.24 2.952a3.503 3.503 0 015.296.516zm-22.964 2.95a2.402 2.402 0 103.993 2.669 2.402 2.402 0 00-3.993-2.669zm7.612 9.782c2.13.088 4.226-.468 5.928-1.752a.67.67 0 10-.936-.96A7.872 7.872 0 0124 33.6a7.848 7.848 0 01-4.992-1.512.648.648 0 00-.912.912 9.215 9.215 0 005.928 1.848zm4.162-6.356c.396.264.836.5 1.31.5a2.399 2.399 0 002.424-2.496 2.401 2.401 0 10-3.734 1.996z" fill="#fff"/></svg>