<svg width="48" height="48" fill="none" xmlns="http://www.w3.org/2000/svg"><path d="M24 0C10.746 0 0 10.746 0 24s10.746 24 24 24 24-10.746 24-24S37.254 0 24 0zm13.714 13.591l-2.185 2.095a.634.634 0 00-.247.61V31.71a.626.626 0 00.247.61l2.142 2.095v.466H26.914v-.444l2.213-2.148c.22-.22.22-.284.22-.611V19.205l-6.161 15.622h-.83l-7.169-15.622V29.68a1.43 1.43 0 00.402 1.2l2.882 3.487v.466h-8.185v-.466l2.882-3.487a1.399 1.399 0 00.375-1.2V17.57a1.039 1.039 0 00-.348-.894l-2.561-3.086v-.466h7.955l6.14 13.473 5.405-13.462h7.58v.455z" fill="#fff"/></svg>