<svg width="48" height="48" fill="none" xmlns="http://www.w3.org/2000/svg"><path d="M23.994 15.997c-4.407 0-8.003 3.596-8.003 8.003s3.596 8.003 8.003 8.003 8.003-3.596 8.003-8.003-3.596-8.003-8.003-8.003zM47.998 24c0-3.314.03-6.599-.156-9.907-.186-3.842-1.063-7.253-3.873-10.062C41.154 1.215 37.75.344 33.907.158 30.593-.028 27.308.002 24 .002c-3.314 0-6.599-.03-9.907.156C10.251.344 6.84 1.22 4.031 4.03 1.215 6.846.344 10.25.158 14.093-.028 17.407.002 20.692.002 24s-.03 6.599.156 9.907C.344 37.749 1.22 41.16 4.03 43.97c2.815 2.815 6.22 3.686 10.062 3.872 3.314.186 6.599.156 9.907.156 3.314 0 6.599.03 9.907-.156 3.842-.186 7.253-1.063 10.063-3.873 2.815-2.815 3.686-6.22 3.872-10.062.192-3.308.156-6.593.156-9.907zM23.994 36.314c-6.815 0-12.314-5.5-12.314-12.314 0-6.815 5.5-12.314 12.314-12.314 6.815 0 12.314 5.5 12.314 12.314 0 6.815-5.5 12.314-12.314 12.314zm12.819-22.257a2.873 2.873 0 01-2.876-2.876 2.872 2.872 0 012.876-2.876 2.872 2.872 0 012.876 2.876 2.872 2.872 0 01-2.876 2.876z" fill="#fff"/></svg>