<svg width="59" height="40" fill="none" xmlns="http://www.w3.org/2000/svg"><path fill-rule="evenodd" clip-rule="evenodd" d="M37.78 0a3.975 3.975 0 00-3.967 3.983c0 2.2 1.776 3.982 3.968 3.982h7.704L30.828 23.233l-7.32-7.348a3.96 3.96 0 00-5.655.043L1.12 33.244a3.993 3.993 0 00.086 5.632 3.957 3.957 0 005.61-.086l13.93-14.413 7.33 7.357a3.96 3.96 0 005.662-.053l17.327-18.048v7.32a3.975 3.975 0 003.968 3.982A3.975 3.975 0 0059 20.952V3.982A3.975 3.975 0 0055.032 0H37.781z" fill="url(#paint0_linear_39_534)"/><defs><linearGradient id="paint0_linear_39_534" x1="29.5" y1="0" x2="29.5" y2="40" gradientUnits="userSpaceOnUse"><stop stop-color="#E75C5C"/><stop offset="1" stop-color="#E13600"/></linearGradient></defs></svg>