<svg width="45" height="44" fill="none" xmlns="http://www.w3.org/2000/svg"><path d="M19.855 2.504c1.097-2.241 4.292-2.241 5.389 0l4.506 9.205a3 3 0 002.257 1.649l10.122 1.491c2.452.362 3.433 3.372 1.665 5.109l-7.351 7.22a3 3 0 00-.856 2.643l1.73 10.17c.418 2.454-2.163 4.32-4.363 3.154l-9-4.773a3 3 0 00-2.81 0l-9 4.773c-2.199 1.166-4.78-.7-4.362-3.154l1.73-10.17a3 3 0 00-.856-2.644l-7.351-7.22C-.463 18.222.518 15.212 2.97 14.85l10.122-1.492a3 3 0 002.257-1.648l4.506-9.205z" fill="url(#paint0_linear_39_533)"/><defs><linearGradient id="paint0_linear_39_533" x1="12.366" y1="2.458" x2="23.658" y2="42.675" gradientUnits="userSpaceOnUse"><stop offset="0" stop-color="#FFED8C"/><stop offset="1" stop-color="#F4B335"/></linearGradient></defs></svg>