<svg width="644" height="662" fill="none" xmlns="http://www.w3.org/2000/svg"><path opacity=".03" fill-rule="evenodd" clip-rule="evenodd" d="M549.232 75.234c-16.185 17.521-32.443 35.002-48.876 52.762 21.697 17.439 34.401 41.153 49.518 63.128 11.45 16.6 23.998 32.465 35.904 48.764 2.507 3.397 5.077 3.594 8.942 2.351 14.713-4.784 29.51-9.248 44.317-13.701 1.461-.445 3.233.125 4.839.239l.124 1.967c-1.637.601-3.295 1.284-4.943 1.802-15.117 4.722-30.194 9.589-45.436 14.011-4.476 1.305-6.434 3.356-7.408 7.943-8.113 39.3-3.927 77.937 4.88 116.615 2.528 11.163 6.518 17.801 19.211 18.485 8.745.435 17.345 3.262 25.987 5.033.166.59.321 1.18.445 1.791-1.419.487-2.973 1.522-4.269 1.284a946.413 946.413 0 01-32.017-6.327c-3.886-.839-6.943-.29-10.238 2.05-22.567 16.072-38.39 37.426-50.451 61.544-8.051 16.051-14.734 32.724-22.039 49.096-1.015 2.299-2.207 4.525-3.544 7.321a54337.66 54337.66 0 0049.218 44.198c-1.906 4.349-3.74 2.413-5.792.59-12.548-11.235-25.137-22.399-37.644-33.635-10.507-9.403-10.465-9.423-23.148-2.734-17.221 9.103-34.587 17.905-51.591 27.35-14.454 7.984-27.054 18.184-37.437 31.004-2.165 2.693-2.694 4.878-1.419 8.275 6.714 17.604 13.159 35.302 19.666 52.958.125.342.363.663.405 1.036.165 2.206.279 4.463.404 6.69-1.441-1.709-3.42-3.18-4.145-5.116a2053.796 2053.796 0 01-19.708-52.959c-1.482-4.163-3.482-5.426-7.875-5.374-29.22.258-57.497 6.451-85.805 12.727-15.636 3.469-31.292 7.145-46.918 10.573-3.181.673-4.538 2.102-5.264 5.178-3.502 14.798-7.242 29.503-10.9 44.239-.487 1.895-1.005 3.78-1.451 5.571-4.745.373-3.657-2.154-3.056-4.525 3.978-16.145 8.123-32.248 11.698-48.516.85-3.728.611-8.316-.808-11.868-12.911-32.641-38.639-49.003-72.947-54.025-12.423-1.813-24.93-2.972-37.354-4.66-3.336-.487-5.388.445-7.595 2.847a5829.065 5829.065 0 01-44.39 47.699c-1.17 1.18-3.139 1.646-4.703 2.443-.404-.611-.85-1.201-1.254-1.812 16.931-18.288 33.893-36.566 51.311-55.392-3.492-4.028-6.797-8.057-10.362-11.847-12.061-12.468-24.443-24.605-36.266-37.322-18.454-19.851-24.609-30.538-37.789-63.21-2.455.704-5.025 1.377-7.553 2.174-12.662 3.935-25.335 7.943-37.997 11.754-1.606.507-3.574-.042-5.346-.124 1.45-1.181 2.735-2.869 4.383-3.428 13.667-4.463 27.344-8.844 41.136-12.945 3.823-1.118 5.595-3.137 6.59-6.865 7.077-26.003 5.709-51.986-.156-77.844-3.896-17.118-8.724-33.997-13.512-50.877-.518-1.76-3.253-3.718-5.325-4.173-10.911-2.537-21.977-4.577-32.992-6.794L0 270.883c1.41-.456 2.932-1.492 4.228-1.284 7.999 1.367 15.998 2.692 23.883 4.66 4.912 1.242 8 .321 11.699-3.418 19.863-20.193 35.343-43.038 45.519-69.258 7.885-20.277 12.185-41.288 13.47-62.869.114-2.455-1.254-5.623-3.016-7.436-11.418-11.795-23.158-23.31-34.95-35.084 1.327-3.035 2.974-1.75 4.984.196 11.14 10.832 22.278 21.685 33.572 32.331 1.368 1.284 3.865 2.537 5.544 2.226 39.001-7.29 75.319-20.639 105.824-46.455 5.025-4.236 9.45-9.165 14.237-13.639 2.611-2.413 2.932-4.888 1.927-8.253-5.305-18.226-10.362-36.545-15.522-54.833-.238-.85-.684-1.75-.642-2.61.052-1.73.331-3.438.528-5.157 1.078 1.284 2.777 2.413 3.223 3.883 3.699 12.5 7.191 25.05 10.776 37.55 1.772 6.265 3.782 12.5 5.274 18.806.839 3.635 2.85 5.364 6.227 6.71 32.93 13.069 66.585 13.224 100.675 5.851 9.004-1.947 17.853-4.68 26.774-6.835 3.337-.787 4.798-2.402 5.544-5.706 4.103-17.977 8.413-35.903 12.745-53.828.404-1.491 1.699-2.775 2.569-4.142.643.28 1.254.58 1.907.88-.207 1.512-.321 3.055-.643 4.536-3.989 17.076-8.071 34.111-11.822 51.28-.446 2.165.238 5.479 1.72 7.074 31.81 33.842 71.216 53.248 117.74 58.789 1.844.217 4.538-1.16 5.906-2.61 14.548-15.389 28.94-30.943 43.374-46.393 1.544-1.616 3.098-4.774 5.999-.611h-.041zM138.629 530.985c7.885-8.46 15.398-16.383 22.64-24.532.964-1.088 1.13-3.739.487-5.189a301.321 301.321 0 00-9.367-20.814c-13.345-26.811-31.292-50.111-55.528-68.493-1.689-1.263-4.176-2.992-5.71-2.547-11.78 3.283-23.49 7.073-35.384 10.759 5.43 19.5 14.154 36.587 27.095 51.137 17.937 20.141 36.795 39.444 55.767 59.679zm444.942-285.494c-12.227-16.994-24.081-33.294-35.655-49.832-10.103-14.425-19.428-29.41-29.914-43.618-5.627-7.652-12.911-14.145-19.915-21.633-9.005 9.683-17.118 18.268-24.972 27.122-.829.963-.383 3.738.383 5.219 5.306 10.128 10.528 20.308 16.31 30.187 14.06 23.932 31.851 44.747 55.041 60.777 1.513 1.046 3.823 2.33 5.305 1.905 11.294-3.179 22.495-6.751 33.417-10.127zM259.457 603.412c46.918-9.278 91.763-23.662 139.966-23.869-3.824-10.315-7.202-19.976-11.108-29.504a10.12 10.12 0 00-5.544-5.022c-12.91-4.101-26.204-3.935-39.447-1.843-25.375 4.018-48.772 14.021-72.407 23.217a5.637 5.637 0 00-3.098 3.335c-2.85 10.842-5.419 21.715-8.362 33.686zM40.617 275.574c1.369.787 1.928 1.305 2.58 1.45 10.497 2.154 20.931 4.318 31.48 6.213 1.367.238 3.44-.787 4.538-1.854 31.852-30.86 48.337-68.533 51.664-111.996.082-1.564.279-3.759-.601-4.639-8.528-8.626-17.284-17.025-26.899-26.386-4.342 53.839-23.998 99.631-62.792 137.212h.03zm66.357-140.671c8.569 8.699 16.682 17.035 25.013 25.195.922.922 3.098 1.243 4.508.984 34.38-6.545 66.304-18.423 92.633-41.992 11.056-9.89 11.015-9.942 7.077-23.694a6718.493 6718.493 0 00-6.714-23.29c-33.417 36.079-75.9 53.094-122.517 62.755v.042zm-12.63 268.894c12.34-3.831 23.759-7.29 35.105-11.111 1.45-.477 2.932-2.776 3.222-4.422 1.326-7.653 2.777-15.316 3.14-23.021.849-18.329-4.829-35.644-8.642-53.331-2.487-11.412-7.232-17.563-19.656-18.247-8.28-.435-16.444-2.951-25.21-4.66 1.15 38.823 14.133 75.513 12.04 114.74v.052zm488.553-153.895c-10.486 3.21-19.894 6.348-29.469 8.937-4.331 1.16-6.113 3.314-7.004 7.611-7.108 34.402-3.254 68.151 4.797 101.9 1.803 7.518 4.974 10.853 12.745 11.764 8.642.984 17.159 3.2 25.076 4.722-3.606-22.492-7.792-44.446-10.486-66.587-2.684-22.502-.684-45.005 4.341-68.347zm-71.682 258.642c18.578-45.026 36.027-89.41 77.754-119.441-11.74-2.372-22.184-4.64-32.722-6.514-1.637-.3-4.093.611-5.419 1.771-7.709 6.71-15.843 13.1-22.61 20.628-14.029 15.637-23.313 34.184-31.468 53.228-3.865 8.927-7.564 17.926-11.47 27.225l25.935 23.103zM81.826 284.625c13.388 2.692 25.614 5.219 37.914 7.435 1.326.238 3.336-1.16 4.507-2.33 24.568-24.408 37.675-53.912 40.328-87.961.124-1.646-.042-3.914-1.047-4.981-8.807-9.206-17.812-18.164-26.774-27.183-.529.186-1.088.383-1.565.579-3.969 44.033-20.589 82.411-53.363 114.43v.011zM367.664 68.937c-45.063 13.566-89.1 18.93-134.215.85 2.849 10.19 5.626 18.95 7.678 27.887 1.119 4.981 3.823 7.436 8.559 9.258 35.862 13.721 71.413 9.507 106.922-1.305a5.485 5.485 0 003.057-3.251c2.704-10.656 5.15-21.385 7.999-33.439zm4.621-.921c-2.694 11.463-5.181 21.612-7.388 31.823a6.058 6.058 0 001.337 4.66c26.453 28.529 59.134 45.564 98.136 50.898 1.699.217 4.144.217 5.118-.767 7.989-8.16 15.688-16.579 24.288-25.775-48.171-6.306-88.261-25.92-121.491-60.84zm96.229 94.133c-8.641 9.247-16.775 17.822-24.609 26.603-.766.88-.425 3.376.239 4.722 2.932 6.027 6.03 11.951 9.284 17.864 11.822 21.54 26.495 40.832 46.845 55.433 1.679 1.212 4.165 2.838 5.751 2.393 12.144-3.418 24.122-7.27 37.54-11.433-35.406-24.657-57-58.333-75.05-95.582zm-330.869 2.93c6.31 6.307 12.019 12.137 17.853 17.843 11.543 11.246 11.584 11.288 27.417 7.249 24.806-6.369 47.446-16.735 65.9-34.733 2.487-2.454 3.295-4.577 2.207-8.077-2.735-8.419-4.911-16.994-7.356-25.517-.726-2.609-1.606-5.219-2.694-8.657-28.547 29.71-64.212 43.732-103.327 51.882v.01zm405.349 97.095c-11.47 3.52-21.718 6.896-32.142 9.786-4.072 1.149-5.906 3.055-6.797 7.218-6.113 29.347-2.57 58.167 5.243 86.697.425 1.667 2.974 3.5 4.901 3.976 6.756 1.688 13.657 2.817 20.537 4.184 4.59.88 9.129 1.802 14.548 2.848-10.155-38.098-14.994-75.431-6.29-114.74v.031zm4.694 118.975c-1.958-.569-3.14-1.004-4.31-1.242-9.409-1.916-18.724-4.029-28.215-5.489-2.694-.414-6.238.259-8.497 1.771-10.527 6.98-19.449 15.875-25.521 26.666-9.895 17.656-18.703 35.882-27.945 53.818 10.02 8.978 18.941 16.942 28.795 25.734 15.667-38.14 30.567-75.7 65.693-101.258zm-450.32 25.838c33.013 24.833 53.84 56.945 68.637 93.045.88-.259 1.326-.238 1.523-.466 5.15-5.416 10.258-10.894 15.356-16.351 8.849-9.59 8.849-9.61 3.419-21.582-11.18-24.636-26.381-46.3-48.233-63.045-1.71-1.315-4.487-2.702-6.217-2.216-11.119 3.107-22.102 6.742-34.484 10.615zM358.07 109.418c-38.152 11.246-75.34 15.233-113.543-.321 3.616 12.841 6.838 24.429 10.216 35.965.239.787 1.285 1.522 2.135 1.895 29.271 12.437 58.937 10.821 88.696 1.926 1.419-.435 3.378-1.522 3.668-2.672 3.005-11.836 5.74-23.766 8.828-36.793zm106.881 50.276c-20.06-3.251-38.556-8.481-55.901-17.314-17.201-8.803-32.08-20.618-46.1-34.92l-8.766 37.27c2.207 2.071 4.29 3.842 6.135 5.727 19.79 19.976 43.653 32.444 71.661 37.166 2.487.404 6.196.446 7.585-.963 8.507-8.481 16.537-17.449 25.386-26.966zM403.06 577.13a131.945 131.945 0 0139.063-33.024c16.309-9.165 33.033-17.605 49.56-26.407 4.632-2.444 9.212-5.012 14.33-7.777-8.299-7.415-15.843-14.322-23.614-20.97-.953-.86-3.482-1.098-4.652-.508-17.563 9.165-35.189 18.288-52.555 27.867a100.6 100.6 0 00-31.189 26.469c-1.108 1.471-1.958 4.08-1.398 5.665 3.087 9.258 6.631 18.36 10.465 28.685h-.01zm-261.416-43.452c2.249.393 3.461.652 4.663.818 12.424 1.646 24.889 2.93 37.25 5.001 32.868 5.499 57.798 21.685 71.631 52.296.321.694 1.005 1.305 1.896 2.465 2.373-9.61 4.704-18.526 6.714-27.484.404-1.626 0-3.624-.559-5.229-9.015-24.792-26.101-41.299-52.638-46.974-13.832-2.951-28.028-4.276-42.058-6.213-1.326-.186-3.253.083-4.02.911-7.554 7.819-14.911 15.824-22.879 24.378v.031zM42.649 280.917c12.548 44.623 26.578 87.961 13.066 134.831 11.501-3.594 21.832-6.69 32.048-10.139 1.12-.403 2.208-2.775 2.208-4.235.041-8.481.404-17.025-.643-25.423-3.533-28.447-7.553-56.853-11.543-85.268-.207-1.191-1.647-2.89-2.777-3.138-10.361-2.258-20.827-4.256-32.36-6.576v-.052zm342.35 259.771c-4.124-11.111-7.916-21.581-12.019-31.926-.508-1.305-2.695-2.651-4.207-2.806-8.259-.767-16.538-2.092-24.692-1.564-17.698 1.118-33.779 8.367-50.462 13.504-11.377 3.521-17.449 9.403-18.661 21.115-.767 7.518-3.378 14.87-5.347 23.072 11.699-4.339 22.278-8.533 33.054-12.24 21.998-7.55 44.265-14.022 68.066-11.412 4.518.476 8.963 1.398 14.268 2.257zm4.798.591c22.868-28.996 57.331-39.341 87.079-57.422-8.724-7.798-16.962-15.254-25.355-22.555-.891-.777-3.181-1.077-4.227-.518-16.175 8.637-32.598 16.921-48.162 26.48-7.325 4.504-13.159 11.453-19.303 17.604-1.213 1.201-1.803 4.08-1.275 5.706 3.347 9.921 7.129 19.697 11.243 30.705zm-123.242 14.787c2.611-10.728 5.108-20.814 7.481-30.942.238-.984-.114-2.164-.477-3.179-6.631-19.283-18.661-33.749-39.405-39-11.906-2.992-24.247-4.318-36.474-6.047-1.689-.218-4.103 1.201-5.471 2.568-4.911 4.888-9.553 10.055-14.237 15.15-2.735 2.972-5.388 6.027-8.569 9.569 10.362 1.346 19.656 2.495 28.909 3.78 30.277 4.235 53.881 17.718 66.585 46.248.207.404.694.725 1.658 1.853zm-96.022-353.644l-1.648.849c-3.492 34.494-16.806 64.66-42.421 90.208 11.015 2.185 20.931 4.266 30.847 6.027 1.202.217 3.098-.881 4.135-1.885 19.179-19.21 29.479-42.396 31.727-69.072.114-1.45-.321-3.376-1.295-4.381-6.984-7.362-14.185-14.539-21.345-21.746zm328.952 68.916c-28.473-20.39-45.518-47.822-60.191-77.77-7.129 7.611-13.677 14.446-19.894 21.519-.788.921-.591 3.375.041 4.701 2.757 5.706 5.73 11.329 8.829 16.88 9.045 16.134 20.112 30.663 35.312 41.836 1.554 1.16 4.093 2.434 5.709 1.989 9.73-2.662 19.325-5.779 30.194-9.155zm-300.903-47.863c8.849 8.957 17.376 17.646 26.06 26.199.808.808 2.714 1.005 3.978.787 12.59-2.309 24.609-6.192 35.5-13.058 10.361-6.586 10.361-6.566 7.077-18.402l-1.524-5.199c-2.093-7.394-4.217-14.787-6.351-22.264-22.361 10.159-45.882 16.351-64.74 31.937zm300.116 52.399c-8.362 2.579-17.522 5.261-26.536 8.336-1.461.508-2.808 2.693-3.223 4.319-5.709 23.828-2.974 47.294 3.461 70.553a4.942 4.942 0 003.222 3.023c9.45 2.082 18.962 3.873 28.537 5.789-2.404-15.554-5.824-30.559-6.715-45.699-.912-15.13.726-30.446 1.254-46.321zm6.03 96.37c-6.237-1.243-11.169-1.523-15.48-3.273-13.501-5.478-22.827.218-30.919 10.107-2.207 2.703-4.943 5.106-6.518 8.078a2411.364 2411.364 0 00-22.63 45.099c-.445.849-.238 2.64.404 3.23 6.798 6.266 13.74 12.417 21.356 19.21 12.745-30.818 24.847-61.119 53.787-82.451zm-377.435-74.426c8.808 30.694 17.895 60.373 9.326 92.558 5.181-1.543 9.367-2.754 13.512-4.08 19.179-6.027 19.697-6.917 20.07-27.132.28-18.184-5.305-35.24-10.216-52.43-.28-1.046-1.285-2.517-2.207-2.713-9.813-2.123-19.667-4.029-30.485-6.203zm67.434 172.669c6.839-7.311 12.984-13.762 18.879-20.41a5.008 5.008 0 00.788-4.246c-9.087-23.093-22.112-43.577-42.307-59.069-1.161-.901-3.14-1.947-4.342-1.584-9.253 2.661-18.454 5.633-28.712 8.844 26.661 20.369 43.385 46.372 55.694 76.465zm70.885-286.851c1.088-.258 1.937-.662 2.735-.59 1.047.083 2.135.445 3.14.86 21.707 8.885 43.622 7.476 65.62 1.232 1.42-.404 3.378-1.512 3.668-2.651 2.529-9.538 4.694-19.168 7.243-29.98-30.805 8.803-60.647 11.298-91.566-1.563a6060.494 6060.494 0 009.16 32.692zm87.618-34.422l-7.408 31.523c2.652 2.133 4.838 3.583 6.683 5.406 15.439 15.367 33.862 25.319 55.57 29.213 1.678.3 4.248.6 5.139-.301 7.108-7.145 13.926-14.591 21.594-22.803-32.484-5.219-58.917-19.209-81.578-43.038zm109.161 133.619c-22.527-16.88-36.028-38.823-47.602-62.973-8.963 9.642-17.138 18.402-24.733 26.583l6.983 12.976c6.518 12.033 14.123 23.3 25.179 31.885 1.617 1.243 4.477 2.33 6.238 1.833 10.942-3.034 21.749-6.566 33.935-10.304zm-263.239-52.865c-.57.3-1.13.642-1.689.963-3.223 26.583-13.626 49.976-33.292 70.024 12.506 2.496 23.842 4.868 35.261 6.835 1.45.238 3.668-1.243 4.869-2.527 11.896-12.582 18.62-27.587 20.828-44.529.238-1.802 0-4.297-1.088-5.499-8.124-8.574-16.527-16.89-24.848-25.267h-.041zm171.444 271.938c-3.336-9.123-6.196-17.324-9.45-25.36-.611-1.492-2.808-3.2-4.372-3.283-7.326-.487-15.035-1.947-21.957-.28-15.003 3.573-29.562 8.844-44.265 13.504-1.088.362-2.497 1.388-2.777 2.371-2.528 9.693-4.859 19.448-7.481 30.001 29.541-10.76 57.57-23.539 90.302-16.953zm94.323-215.511c-10.6 3.252-20.092 6.473-29.79 8.999-4.518 1.16-6.196 3.573-6.963 7.695-2.85 15.916-1.513 31.605 2.487 47.149.321 1.325 1.658 3.2 2.828 3.438 11.253 2.465 22.548 4.619 34.691 7.052-6.144-24.781-9.242-48.91-3.253-74.333zm3.295 78.569c-9.574-1.937-18.175-3.076-26.412-5.53-7.492-2.247-12.786.02-17.646 5.167-1.016 1.046-2.145 2.009-3.098 3.096-10.258 11.112-15.729 24.761-21.19 38.399-.363.901-.083 2.672.591 3.283 7.854 7.239 15.801 14.332 24.37 21.964 10.341-25.04 20.154-49.313 43.385-66.379zm-296.448 14.539c10.735-3.335 20.143-6.472 29.676-9.123 3.74-1.046 5.305-3.055 6.072-6.597 2.528-12.012-.322-23.538-2.135-35.344-1.938-12.509-7.595-19.147-20.931-19.385-4.87-.125-9.729-1.854-14.62-2.776-1.668-.321-3.357-.559-5.688-.942 7.077 24.584 14.195 48.164 7.605 74.167h.021zm274.398 76.942c-7.18-6.451-14.03-12.727-21.065-18.733-.788-.704-3.14-.425-4.29.186-9.812 4.971-19.998 9.486-29.158 15.451-8.476 5.519-15.926 12.592-23.676 19.147-1.088.922-2.207 3.055-1.845 4.174 2.85 8.585 6.114 17.045 9.554 26.448 18.651-23.6 46.234-32.133 70.48-46.673zm-227.501-11.639c7.761-8.357 14.879-15.865 21.832-23.601.808-.953 1.046-3.076.591-4.277-6.29-16.32-15.305-30.86-29.252-42.075-1.326-1.046-3.45-2.33-4.704-1.967-10.693 3.096-21.272 6.534-32.888 10.19 21.148 16.641 34.494 37.373 44.421 61.73zm56.854 70.563a33.1 33.1 0 001.213-.59c1.326-5.22 2.694-10.46 3.896-15.658.767-3.283 2.476-7.011 1.627-9.942-4.446-15.274-12.766-28.074-29.055-32.972-9.968-3.013-20.547-4.028-30.878-5.789-1.119-.207-2.89 0-3.574.694-6.632 6.876-13.108 13.908-20.548 21.882 33.293 2.63 63.58 8.253 77.319 42.375zm64.015-326.575c-24.661 6.896-48.286 7.652-73.05-2.092l10.496 37.208c3.13.144 5.627-.322 7.637.434 14.195 5.406 28.505 5.002 42.939 1.367 1.575-.403 3.585-2.112 3.989-3.572 2.767-10.646 5.129-21.374 7.948-33.345h.041zm69.631 30.973c-24.122-4.525-43.893-14.746-60.192-31.274-2.611-2.672-4.496-2.05-5.346 1.523-2.528 10.687-5.057 21.394-7.409 31.274 3.016 1.988 5.772 3.293 7.813 5.219 10.175 9.672 21.956 16.455 35.779 19.551 1.741.383 4.435.238 5.419-.808 7.906-8.046 15.501-16.403 23.936-25.485zm-214.135 1.015c16.972-13.586 37.312-20.815 57.3-28.768a41.42 41.42 0 007.357-3.697c.963-.6 1.948-2.371 1.73-3.293-2.414-9.206-5.108-18.329-7.968-28.416-23.075 23.01-51.508 34.039-81.702 40.346 7.72 7.911 15.325 15.668 23.283 23.828zm225.17 212.456c-8.321-7.435-15.968-14.467-23.884-21.177-.932-.808-3.419-.725-4.714-.104-6.114 2.91-12.424 5.686-18.009 9.466-6.756 4.535-12.952 9.941-19.19 15.171-1.078.9-2.083 3.034-1.72 4.111 3.378 9.838 7.046 19.572 10.973 30.217 14.89-18.93 36.67-25.992 56.544-37.684zm-131.014 49.107c22.838-8.285 44.431-17.522 69.196-13.266-3.544-9.558-7.087-18.288-9.978-27.204-1.358-4.215-3.762-5.458-7.989-5.665-14.496-.725-27.417 4.66-40.452 9.61-.923.352-2.01 1.326-2.207 2.165-2.85 11.111-5.585 22.254-8.57 34.36zm-66.335-35.934c27.137 2.009 50.658 7.922 61.756 36.451 2.901-11.815 5.346-21.726 7.761-31.646.124-.508.321-1.181.082-1.585-3.45-5.82-6.268-12.282-10.693-17.345-8.642-9.859-21.231-10.667-33.375-11.816-.881-.104-2.093.787-2.777 1.522-7.232 7.663-14.392 15.42-22.754 24.419zm146.949-178.138l4.674 6.514c6.113 8.522 12.061 17.159 18.35 25.537.995 1.305 3.648 2.63 5.036 2.226 7.409-1.885 14.631-4.339 21.801-6.586-6.031-6.876-12.144-12.903-17.076-19.769-4.994-6.876-8.808-14.55-13.077-21.943-1.657-2.931-3.377-3.615-5.864-.881-4.673 5.075-9.409 10.138-13.844 14.902zm57.394 88.489c-7.564-1.522-13.636-2.972-19.791-3.811a10.858 10.858 0 00-6.963 1.564c-11.74 8.191-16.599 20.815-21.552 33.314-.301.839.238 2.527 1.015 3.2 4.901 4.598 9.937 9.019 15.481 13.959 7.584-17.925 14.63-35.489 31.81-48.226zm-2.466-57.971c-7.347 2.268-13.74 3.935-19.853 6.286a8.456 8.456 0 00-4.549 4.96c-2.891 11.433-2 22.907.85 34.257.321 1.222 1.295 3.055 2.248 3.272 7.409 1.73 14.88 3.117 23.127 4.805-4.31-18.05-6.071-35.147-1.823-53.58zM231.211 260.6l-1.896 1.211c-2.612 17.884-10.051 33.635-22.838 47.532 8.083 1.647 15.077 3.273 22.154 4.308 1.689.239 4.217-1.025 5.429-2.392a54.105 54.105 0 0013.667-29.555c.208-1.449-.083-3.396-.963-4.38-5.015-5.716-10.321-11.184-15.553-16.724zM205.4 313.361c4.901 17.926 10.248 35.106 5.709 53.788 6.88-2.123 12.579-4.112 18.413-5.603 3.865-.984 5.264-3.179 5.792-6.793 1.772-12.013-1.689-23.228-5.025-34.474-.28-1.046-1.897-2.247-3.057-2.516-6.839-1.512-13.667-2.796-21.832-4.402zm39.965 102.656c5.264-5.665 9.812-10.459 14.113-15.316.766-.86 1.253-2.734.849-3.749-4.704-12.116-11.139-23.165-21.552-31.512-1.088-.88-3.098-1.491-4.383-1.118-6.673 1.853-13.263 4.059-20.827 6.43 15.076 12.293 24.723 27.401 31.841 45.265h-.041zm84.344-185.801c-8.227.808-15.75 2.33-23.148 2.009-7.637-.342-15.159-2.61-22.796-3.821-3.378-.528-4.911 1.522-4.124 4.577 1.876 7.114 4 14.187 5.575 19.665 4.02.218 7.036-.145 9.647.663a50.678 50.678 0 0026.256.922c1.42-.321 3.295-1.854 3.668-3.179 1.834-6.742 3.285-13.639 4.922-20.815v-.021zm-99.141 24.243c5.907 6.089 11.378 11.795 17.004 17.418.487.435 1.73.435 2.539.279 10.361-1.884 20.422-4.898 29.033-11.173 1.326-.943 2.694-3.314 2.414-4.66-1.689-7.125-3.865-14.146-6.113-22.037-13.356 11.07-28.588 16.569-44.877 20.173zm99.058-4.474c3.378 1.988 5.886 3.521 8.404 5.002 7.201 4.215 14.33 8.522 21.655 12.572 1.192.662 3.803.88 4.539.165 5.461-5.385 10.641-11.049 16.206-16.983-20.931-6.71-23.998-8.357-39.603-21.674-3.015-2.579-5.543-2.538-6.6 1.346-1.928 6.917-3.306 13.97-4.601 19.572zm61.528 157.292c-5.502-4.93-10.155-9.227-15.035-13.338-.912-.787-2.891-1.585-3.678-1.171-9.771 5.23-20.641 8.989-27.625 18.268-.808 1.087-2.103 2.682-1.782 3.604 2.104 6.41 4.549 12.706 7.243 20.038 11.087-13.742 26.485-19.148 40.877-27.401zm-140.567 9.382c20.029 1.408 35.624 7.456 43.343 26.086 2.249-6.876 3.896-13.431 5.471-20.018.166-.662.238-1.522-.083-2.05-1.927-3.096-4.062-6.069-5.947-9.165-5.71-9.32-15.077-11.391-25.128-12.095-.88-.062-2.134.642-2.808 1.367-4.631 4.825-9.17 9.765-14.848 15.875zm94.188 15.751c-2.269-6.11-4.518-11.412-6.155-16.88-1.171-3.769-3.295-5.747-7.201-4.857-8.041 1.844-15.999 3.956-23.956 6.069-.923.248-2.135 1.201-2.332 2.019-1.969 7.218-3.74 14.488-5.833 22.803 15.231-5.695 29.23-10.842 45.477-9.154zm44.669-127.043c-6.517-10.004-12.828-19.634-19.065-29.275-1.679-2.61-3.969-3.677-6.311-1.45-4.973 4.929-9.574 10.19-13.542 14.467 2.331 2.651 4.124 4.421 5.543 6.451 3.223 4.557 6.114 9.403 9.533 13.804.912 1.17 3.585 2.009 5.057 1.605 6.558-1.667 12.993-3.842 18.785-5.602zm8.476 45.606c-7.75-1.584-14.185-2.972-20.661-4.111-1.057-.207-2.445.456-3.461 1.118-8.072 5.344-11.574 13.701-14.879 22.182-.28.725.207 2.175.808 2.775 4.735 4.412 9.574 8.689 14.91 13.515 5.513-13.401 10.901-25.848 23.283-35.479zm-2.528-4.815v-38.192c-7.129 2.165-13.906 4.225-20.62 6.39-.684.207-1.533 1.18-1.533 1.843-.125 7.673-.28 15.388 0 23.072.041 1.077 2.269 2.693 3.699 3.055 6.227 1.502 12.589 2.641 18.454 3.832zm-154.317 11.008c21.584-5.727 24.164-2.196 18.568-27.308-.279-1.222-.518-2.527-1.119-3.614-.528-1.025-1.368-2.392-2.331-2.61-6.839-1.563-13.75-2.879-20.071-4.142 1.741 13.058 3.347 25.433 4.953 37.674zm24.609 37.021c4.342-4.67 9.129-9.796 14.797-15.906-4.622-6.711-9.17-13.587-13.999-20.214-.922-1.243-3.254-2.568-4.466-2.268-6.631 1.729-13.107 3.956-18.609 5.685 7.481 10.977 14.755 21.623 22.277 32.703zm57.497-135.969c-11.056 2.164-21.034 1.76-30.919-1.295-1.005-.279-4.621 2.972-4.383 4.039 1.565 7.249 3.823 14.363 6.155 22.544 2.932-4.173 5.512-4.639 9.253-3.314 3.336 1.16 7.243 1.243 10.859 1.119 1.492-.083 3.73-1.688 4.134-3.034 1.845-6.193 3.129-12.562 4.901-20.059zm-.041 19.406c3.668 1.854 6.403 3.076 8.932 4.557 3.139 1.874 6.03 4.142 9.284 5.809 1.108.59 3.523.528 4.289-.238 4.922-4.826 9.492-9.921 14.372-15.109-5.16-2.392-9.812-4.101-13.968-6.638-4.206-2.527-7.833-5.985-11.864-8.823-3.098-2.154-5.792-1.408-6.755 2.227-1.71 6.451-3.047 12.975-4.29 18.215zm-84.8 37.974c2.932.601 6.683 1.409 10.361 2.154 12.952 2.631 15.035 1.471 19.501-10.987.518-1.522 1.088-3.096 1.243-4.681.125-1.149-.041-2.713-.725-3.469-5.067-5.406-10.248-10.646-14.952-15.451-5.305 11.185-10.258 21.509-15.48 32.434h.052zm101.71 91.544c10.144-6.451 19.749-12.541 29.748-18.93-4.735-4.215-9.408-8.471-14.268-12.489-.808-.683-2.973-.808-3.823-.238-5.626 3.666-11.046 7.539-16.434 11.484-.808.591-1.658 2.175-1.419 2.972 1.969 5.903 4.196 11.764 6.196 17.201zm-86.924-130.263c5.046 5.043 10.248 10.293 15.553 15.45.528.477 1.689.808 2.373.601 5.429-1.647 10.859-3.273 16.122-5.364 1.088-.435 2.29-2.89 2.01-4.101-1.564-6.607-3.595-13.121-5.305-19.044-10.361 4.204-20.464 8.305-30.753 12.458zm46.845 137.854c.487-.062.922-.125 1.368-.207l5.108-20.629c-2.052-1.791-3.461-2.64-4.31-3.821-1.368-1.874-2.166-4.235-3.658-5.986-3.378-3.997-11.222-6.41-13.667-4.038-4.787 4.577-9.17 9.579-14.475 15.274 14.237 1.409 24.443 6.876 29.634 19.407zm34.618-9.403c-1.575-4.339-3.098-9.123-5.139-13.68-.933-1.968-3.181-5.126-4.342-4.929-4.517.766-11.097 1.429-12.744 4.38-3.295 5.872-3.865 13.224-5.627 20.297 9.678-2.102 18.527-4.007 27.852-6.068zm27.708-91.792c-3.668-5.769-6.798-11.029-10.258-16.135-2.104-3.179-4.943-4.401-8.114-1.201-3.015 3.097-5.864 6.39-8.724 9.517 2.207 1.45 4.611 2.33 5.823 4.018 6.031 8.481 5.906 8.585 16.092 5.488 1.72-.548 3.44-1.128 5.181-1.687zm-8.487 54.004a9382.893 9382.893 0 0014.393-22.72c-4.673-.642-10.787-3.376-14.393-1.491-4.434 2.268-7.45 8.118-9.657 13.017-.642 1.47 3.378 5.064 5.461 7.518 1.305 1.481 2.984 2.651 4.196 3.676zm-84.52-14.208l14.31 21.416c3.574-3.853 6.952-7.539 10.289-11.102-2.529-4.204-4.663-8.181-7.357-11.805-.922-1.284-3.378-2.444-4.87-2.164-4.207.797-8.31 2.392-12.372 3.655zm-2.176-3.894c1.73-.486 3.668-1.025 5.554-1.625 10.258-3.2 10.818-4.039 8.041-14.125-.612-2.165-1.969-5.126-3.741-5.789-4.186-1.564-8.807-1.988-13.356-2.848 1.212 8.274 2.3 16.02 3.502 24.387zm100.643-9.019v-23.849l-15.729 4.743c-.083 1.926-.083 3.334-.238 4.742-1.15 10.977-1.192 10.977 9.854 13.266 1.969.383 3.948.715 6.113 1.098zm-51.342-54.036c-5.429-.787-10.175-2.009-14.838-1.854-2.093.042-5.948 3.055-5.792 4.36.601 4.981 2.528 9.786 3.492 13.204 4.269-.435 7.357-.58 10.341-1.191 1.409-.301 3.471-1.222 3.865-2.33 1.285-3.884 1.968-7.964 2.932-12.189zm33.334 84.45c-11.533-10.687-9.854-14.042-23.397-.828 1.606 4.163 3.285 8.419 4.942 12.727l18.455-11.899zm-9.088-77.522c-4.393-3.107-8.113-6.369-12.423-8.533-1.7-.849-6.228.103-6.715 1.284-1.772 4.525-2.445 9.465-3.139 12.613 4.704 2.009 8.279 3.5 12.382 5.188l9.895-10.552zm-49.984 80.256c5.875 4.484 11.221 8.533 17.252 13.141 1.243-4.763 2.611-9.817 3.533-13.441-2.414-2.289-4.3-3.531-5.429-5.261-3.099-4.784-5.264-5.147-9.212-1.015-2.238 2.382-4.497 4.785-6.144 6.576zm-15.957-70.418c-3.378 6.876-5.99 12.137-8.849 17.915 4.745.942 9.367 2.247 13.998 2.496 1.606.124 3.938-2.165 4.819-3.915.808-1.512.766-4.318-.197-5.643-2.777-3.749-6.197-7.001-9.771-10.853zm16.64-12.282a2469.29 2469.29 0 00-16.568 6.11c-.435.704-.881 1.429-1.368 2.154 2.58 1.771 5.347 3.252 7.596 5.302 5.989 5.53 5.864 5.623 14.475 1.367l-4.135-14.933zm34.339 90.653c-1.565-4.235-2.891-7.943-4.383-11.598-.28-.673-1.388-1.688-1.844-1.543-.891.259-2.062 1.036-2.301 1.833-1.326 4.422-2.393 8.875-3.699 13.99l12.227-2.682zm-24.972-53.787c4.829-2.164 9.005-5.219 13.554-5.789 4.631-.538 9.563 1.388 14.361 2.206-10.3-9.258-25.656-6.98-27.915 3.583zm40.256-7.808l1.191-1.833c-3.274-2.579-6.393-5.613-10.123-7.332-1.057-.486-3.989 2.952-6.476 4.94 2.766 1.222 5.253 1.512 5.864 2.692 2.663 5.251 6.124 2.796 9.544 1.533zm5.906 21.509c-5.948-2.248-8.435-1.181-11.574 4.059-2.85 4.764.746 6.213 3.626 8.409 2.767-4.308 5.337-8.388 7.948-12.468zm-44.587 12.602c-1.492-2.433-2.414-5.643-4.538-7.021-2.01-1.242-5.305-.559-9.367-.818 2.404 3.563 3.782 5.416 4.984 7.373 4.01 6.638 4.134 6.659 8.921.466zm-15.48-10.914c3.575-1.181 7.833-.591 7.274-6.214-.518-5.602-3.419-7.694-9.129-7.124.601 4.297 1.202 8.481 1.855 13.338zm51.912-17.802c1.554 10.335 1.554 10.335 8.642 10.004-.529-3.78-1.016-7.518-1.503-11.246-2.404.424-4.807.849-7.139 1.242zm-26.215-18.236a91.74 91.74 0 00-2.207-2.672c-2.694 1.181-6.435 1.709-7.761 3.739-1.16 1.833.28 5.302.601 8.056.725.166 1.492.321 2.207.466 2.414-3.2 4.787-6.42 7.16-9.589zm9.18 50.67c1.182 2.133 2.187 4.07 3.358 6.151l9.284-6.42c-4.311-7.85-8.196-2.931-12.642.269zm-7.211-45.327l1.937 1.896c3.492-1.771 7.036-3.532 10.528-5.323-.166-.88-.363-1.75-.518-2.631-2.622-.362-5.834-1.801-7.637-.807-2.103 1.16-2.953 4.473-4.31 6.865zm.715 46.932c-2.953-1.242-5.181-2.206-7.917-3.365l-3.502 3.893c2.974 2.134 5.554 3.935 8.082 5.748 1.213-2.247 2.383-4.484 3.337-6.276zm-16.558-39.579l-1.523-9.403c-2.415 1.046-4.104 1.75-6.549 2.796 2.725 2.227 4.611 3.79 8.072 6.607zm-3.181 6.949l.725-1.688c-1.844-1.875-3.699-3.759-5.948-6.089-1.16 2.526-1.927 4.235-2.932 6.368l8.155 1.409z" fill="#fff"/></svg>