<svg width="44" height="35" fill="none" xmlns="http://www.w3.org/2000/svg"><path fill-rule="evenodd" clip-rule="evenodd" d="M28.438 0a6.569 6.569 0 016.19 4.375H15.312A10.938 10.938 0 004.376 15.313v10.565A6.564 6.564 0 010 19.688V6.563A6.563 6.563 0 016.563 0h21.875zm8.75 8.75H15.311a6.563 6.563 0 00-6.562 6.563v13.124A6.563 6.563 0 0015.313 35h21.874a6.563 6.563 0 006.563-6.563V15.313a6.563 6.563 0 00-6.563-6.562zm-6.563 13.125a4.375 4.375 0 11-8.75 0 4.375 4.375 0 018.75 0z" fill="#fff"/></svg>