<svg width="35" height="35" fill="none" xmlns="http://www.w3.org/2000/svg"><path d="M33.028 0H23.17a1.972 1.972 0 00-1.972 1.972v9.859c0 1.089.883 1.972 1.972 1.972h9.86A1.972 1.972 0 0035 11.83V1.97A1.972 1.972 0 0033.028 0zM11.831 21.197h-9.86A1.972 1.972 0 000 23.169v9.859C0 34.117.883 35 1.972 35h9.859a1.972 1.972 0 001.972-1.972v-9.86a1.972 1.972 0 00-1.972-1.971zm-4.93-7.394a6.902 6.902 0 100-13.804 6.902 6.902 0 000 13.804zM35 33.028l-6.9-11.83-6.902 11.83c0 1.09.883 1.972 1.972 1.972h9.86A1.972 1.972 0 0035 33.028z" fill="#fff"/></svg>