<svg xmlns="http://www.w3.org/2000/svg" width="140" height="66" fill="none" viewBox="0 0 140 66"><path fill="#fff" d="m68.146 35.985 4.576 2.37a10.8 10.8 0 0 1-3.599 3.01q-2.163 1.134-4.722 1.135-2.87 0-5.242-1.415a10.8 10.8 0 0 1-3.765-3.785Q53.999 34.909 54 32.02q0-2.192.811-4.085a10.6 10.6 0 0 1 2.226-3.347 10.5 10.5 0 0 1 3.328-2.271 10.1 10.1 0 0 1 4.036-.817q2.559 0 4.722 1.136a10.6 10.6 0 0 1 3.599 3.048l-4.576 2.351a5.1 5.1 0 0 0-1.727-1.235 4.9 4.9 0 0 0-2.018-.439q-1.498 0-2.704.797a5.6 5.6 0 0 0-1.914 2.072 5.66 5.66 0 0 0-.707 2.79 5.73 5.73 0 0 0 2.62 4.841q1.208.778 2.705.778 1.082 0 2.06-.439a5.4 5.4 0 0 0 1.685-1.215M84.96 42.5q-2.871 0-5.243-1.415a10.8 10.8 0 0 1-3.765-3.785q-1.394-2.391-1.394-5.28 0-2.192.812-4.085a10.6 10.6 0 0 1 2.226-3.347 10.5 10.5 0 0 1 3.328-2.271 10.1 10.1 0 0 1 4.036-.817q2.87 0 5.22 1.415a10.54 10.54 0 0 1 3.766 3.805q1.415 2.39 1.415 5.3 0 2.172-.812 4.064a10.8 10.8 0 0 1-2.246 3.348 10.4 10.4 0 0 1-3.308 2.251q-1.872.817-4.035.817m0-4.861q1.518 0 2.725-.778a5.5 5.5 0 0 0 1.893-2.052q.707-1.275.707-2.79 0-1.553-.728-2.828a5.4 5.4 0 0 0-1.935-2.052 4.8 4.8 0 0 0-2.662-.777q-1.498 0-2.705.777a5.6 5.6 0 0 0-1.913 2.072 5.8 5.8 0 0 0-.708 2.809q0 1.574.728 2.85a5.7 5.7 0 0 0 1.935 2.031 5.1 5.1 0 0 0 2.663.737m26.618-1.653 4.577 2.37a10.8 10.8 0 0 1-3.599 3.01q-2.163 1.134-4.722 1.135-2.87 0-5.242-1.415a10.8 10.8 0 0 1-3.766-3.785q-1.393-2.391-1.393-5.28 0-2.192.811-4.085a10.6 10.6 0 0 1 2.226-3.347 10.5 10.5 0 0 1 3.328-2.271 10.1 10.1 0 0 1 4.036-.817q2.559 0 4.722 1.136a10.6 10.6 0 0 1 3.599 3.048l-4.577 2.351a5.1 5.1 0 0 0-1.726-1.235 4.9 4.9 0 0 0-2.018-.439q-1.498 0-2.704.797a5.6 5.6 0 0 0-1.914 2.072 5.65 5.65 0 0 0-.707 2.79 5.72 5.72 0 0 0 2.621 4.841q1.206.778 2.704.778 1.082 0 2.059-.439a5.4 5.4 0 0 0 1.685-1.215m23.346-13.927H140v19.924h-5.076l-.229-2.47a6.7 6.7 0 0 1-2.267 2.171q-1.394.817-3.308.817-2.309 0-4.326-.837a11.4 11.4 0 0 1-3.558-2.311 11.1 11.1 0 0 1-2.392-3.407 10.2 10.2 0 0 1-.853-4.144q0-2.131.812-4.005a10.3 10.3 0 0 1 2.309-3.287 10.9 10.9 0 0 1 3.411-2.212q1.935-.797 4.161-.797 2.06 0 3.682.877a9.4 9.4 0 0 1 2.787 2.231zm-5.928 15.76q1.622 0 2.87-.777a5.5 5.5 0 0 0 1.956-2.092q.707-1.334.707-2.93 0-1.612-.707-2.928a5.4 5.4 0 0 0-1.976-2.112q-1.25-.777-2.85-.777a5.6 5.6 0 0 0-2.933.797 6 6 0 0 0-2.102 2.092q-.77 1.315-.769 2.929 0 1.614.79 2.929a6 6 0 0 0 2.101 2.092 5.7 5.7 0 0 0 2.913.777"/><circle cx="21" cy="30.5" r="21" fill="#fff"/><path fill="#000" d="m27.448 35.441 4.552 2.3q-1.664 2.163-4.234 3.461-2.545 1.298-5.53 1.298-3.377 0-6.167-1.617a12.55 12.55 0 0 1-4.43-4.326Q10.002 33.824 10 30.523q0-2.505.954-4.668a12.1 12.1 0 0 1 2.619-3.826 12.3 12.3 0 0 1 3.915-2.595 12.2 12.2 0 0 1 4.748-.934q2.986 0 5.53 1.298 2.57 1.298 4.234 3.484l-4.552 2.3a6.9 6.9 0 0 0-2.398-1.731 6.8 6.8 0 0 0-2.814-.615q-2.007 0-3.646 1.025a7.45 7.45 0 0 0-2.57 2.664q-.93 1.64-.93 3.598 0 1.935.954 3.598a7.5 7.5 0 0 0 2.57 2.64q1.64 1.003 3.622 1.003a6.8 6.8 0 0 0 2.887-.638 7.2 7.2 0 0 0 2.325-1.685"/></svg>